<?xml version="1.0" ?><svg style="enable-background:new 0 0 48 48;" version="1.1" viewBox="0 0 48 48" xml:space="preserve" xmlns="http://www.w3.org/2000/svg" xmlns:xlink="http://www.w3.org/1999/xlink"><g id="Icons"><g id="Icons_5_"><g><linearGradient gradientTransform="matrix(1 0 0 -1 0 50)" gradientUnits="userSpaceOnUse" id="SVGID_1_" x1="24" x2="24" y1="13.57135" y2="39.2313"><stop offset="0.09694" style="stop-color:#FFD879"/><stop offset="0.15387" style="stop-color:#FCCB76"/><stop offset="0.25828" style="stop-color:#F5AA6C"/><stop offset="0.39756" style="stop-color:#E9755E"/><stop offset="0.44898" style="stop-color:#E45F58"/><stop offset="0.67857" style="stop-color:#D22A9C"/><stop offset="1" style="stop-color:#6968DF"/></linearGradient><path d="M34.3,23.9725v9.65c0,0.54-0.44,0.98-0.98,0.98h-7.24v-4.92c0-0.27-0.05-0.53-0.15-0.77     c-0.1-0.26-0.26-0.5-0.46-0.7c-0.37-0.38-0.89-0.61-1.47-0.61c-0.88,0-1.63,0.54-1.93,1.31c-0.1,0.24-0.15,0.5-0.15,0.77v4.92     h-7.24c-0.54,0-0.98-0.44-0.98-0.98v-9.65c0-0.44,0.17-0.86,0.48-1.16l9.13-9.13c0.38-0.38,1-0.38,1.38,0l9.13,9.13     C34.13,23.1125,34.3,23.5325,34.3,23.9725z" style="fill:url(#SVGID_1_);"/></g></g></g></svg>