<?xml version="1.0" encoding="utf-8"?>
<!-- Generator: Adobe Illustrator 21.0.2, SVG Export Plug-In . SVG Version: 6.00 Build 0)  -->
<svg fill="black" fill-rule="evenodd"  version="1.1" id="Layer_1" xmlns="http://www.w3.org/2000/svg" xmlns:xlink="http://www.w3.org/1999/xlink" x="0px" y="0px"
	 viewBox="2 2 20 20" style="enable-background:new 2 2 20 20;" xml:space="preserve">
<style type="text/css">
	.st0{fill:none;}
</style>
<path d="M12,2C6.5,2,2,6.5,2,12s4.5,10,10,10s10-4.5,10-10S17.5,2,12,2z M12.1,19.1C8.2,19.1,5,15.9,5,12s3.2-7.1,7.1-7.1
	c1.8,0,3.5,0.7,4.8,1.9l-2,2c-0.8-0.6-1.7-1-2.8-1c-2.4,0-4.3,1.9-4.3,4.3s1.9,4.3,4.3,4.3c2,0,3.4-1.2,3.9-2.8h-3.9v-2.7h6.7
	C19.4,13.5,18.1,19.1,12.1,19.1z"/>
<rect class="st0" width="24" height="24"/>
</svg>
