<?xml version="1.0" encoding="UTF-8" standalone="no"?>
<!-- Created with Inkscape (http://www.inkscape.org/) -->

<svg
   width="67.733337mm"
   height="67.733337mm"
   viewBox="0 0 67.733337 67.733337"
   version="1.1"
   id="svg8"
   inkscape:version="1.2.2 (732a01da63, 2022-12-09)"
   sodipodi:docname="icon_transparent.svg"
   xmlns:inkscape="http://www.inkscape.org/namespaces/inkscape"
   xmlns:sodipodi="http://sodipodi.sourceforge.net/DTD/sodipodi-0.dtd"
   xmlns="http://www.w3.org/2000/svg"
   xmlns:svg="http://www.w3.org/2000/svg"
   xmlns:rdf="http://www.w3.org/1999/02/22-rdf-syntax-ns#"
   xmlns:cc="http://creativecommons.org/ns#"
   xmlns:dc="http://purl.org/dc/elements/1.1/">
  <defs
     id="defs2">
    <filter
       style="color-interpolation-filters:sRGB;"
       inkscape:label="Colorize"
       id="filter340"
       x="0"
       y="0"
       width="1"
       height="1">
      <feComposite
         in2="SourceGraphic"
         operator="arithmetic"
         k1="0"
         k2="1"
         result="composite1"
         id="feComposite326" />
      <feColorMatrix
         in="composite1"
         values="1"
         type="saturate"
         result="colormatrix1"
         id="feColorMatrix328" />
      <feFlood
         flood-opacity="1"
         flood-color="rgb(251,251,254)"
         result="flood1"
         id="feFlood330" />
      <feBlend
         in="flood1"
         in2="colormatrix1"
         mode="normal"
         result="blend1"
         id="feBlend332" />
      <feBlend
         in2="blend1"
         mode="normal"
         result="blend2"
         id="feBlend334" />
      <feColorMatrix
         in="blend2"
         values="1"
         type="saturate"
         result="colormatrix2"
         id="feColorMatrix336" />
      <feComposite
         in="colormatrix2"
         in2="SourceGraphic"
         operator="in"
         k2="1"
         result="composite2"
         id="feComposite338" />
    </filter>
  </defs>
  <sodipodi:namedview
     id="base"
     pagecolor="#ffffff"
     bordercolor="#666666"
     borderopacity="1.0"
     inkscape:pageopacity="0.0"
     inkscape:pageshadow="2"
     inkscape:zoom="1.4"
     inkscape:cx="187.85714"
     inkscape:cy="134.28571"
     inkscape:document-units="mm"
     inkscape:current-layer="layer1"
     showgrid="false"
     inkscape:window-width="1920"
     inkscape:window-height="1017"
     inkscape:window-x="-8"
     inkscape:window-y="-8"
     inkscape:window-maximized="1"
     inkscape:showpageshadow="false"
     units="px"
     fit-margin-top="0"
     fit-margin-left="0"
     fit-margin-right="0"
     fit-margin-bottom="0"
     inkscape:pagecheckerboard="0"
     inkscape:deskcolor="#d1d1d1" />
  <metadata
     id="metadata5">
    <rdf:RDF>
      <cc:Work
         rdf:about="">
        <dc:format>image/svg+xml</dc:format>
        <dc:type
           rdf:resource="http://purl.org/dc/dcmitype/StillImage" />
        <dc:title />
      </cc:Work>
    </rdf:RDF>
  </metadata>
  <g
     inkscape:label="Layer 1"
     inkscape:groupmode="layer"
     id="layer1"
     transform="translate(-42.106554,-153.8982)">
    <path
       style="fill:#00acff;fill-opacity:1;stroke:none;stroke-width:2.02377915;stroke-miterlimit:4;stroke-dasharray:none;filter:url(#filter340)"
       d="M 128 0 A 128.00001 128.00001 0 0 0 0 128 A 128.00001 128.00001 0 0 0 128 256 A 128.00001 128.00001 0 0 0 256 128 A 128.00001 128.00001 0 0 0 128 0 z M 128.32617 25.785156 C 155.4099 25.785156 179.44856 35.489037 198.92969 54.285156 C 208.31446 63.339959 214.60909 71.928296 219.99805 83.035156 C 227.28755 98.059156 230.23828 111.127 230.23828 128.37109 C 230.23828 151.07165 223.68394 170.86884 210.06836 189.28516 C 206.02227 194.7578 198.11798 203.07158 192.87305 207.37109 C 178.48604 219.16477 160.14783 227.14392 141.95117 229.5293 C 135.66382 230.3535 120.81047 230.45578 115.03711 229.71484 L 115.03711 229.7168 C 97.106679 227.41601 79.957058 220.26657 64.990234 208.85742 C 60.10871 205.13629 50.9495 195.91933 46.951172 190.70312 C 35.754662 176.09617 28.790963 159.51727 26.494141 141.99609 C 25.510844 134.49509 25.517063 120.70526 26.505859 113.84961 C 31.449776 79.577987 53.016868 50.18276 83.988281 35.503906 C 98.393996 28.676303 111.58129 25.785156 128.32617 25.785156 z M 127.99023 41.267578 C 112.25201 41.25246 98.451161 44.858109 84.792969 52.558594 C 72.359257 59.56871 59.504588 72.438234 52.464844 84.923828 C 47.280141 94.119381 43.486546 105.032 42.005859 115.00391 C 41.035023 121.54215 41.014836 134.52486 41.966797 140.78516 C 43.871932 153.31387 48.624198 165.69615 55.513672 176.08203 C 59.275848 181.75351 59.157783 181.6918 62.476562 179.79297 C 68.413346 176.39631 69.963158 174.75209 73.197266 168.41602 C 76.979152 161.00678 81.022358 154.53211 84.675781 150.03516 C 88.893061 144.84409 89.472262 143.92071 91.587891 139.01953 C 92.65241 136.55343 94.562257 132.93111 95.832031 130.9707 L 98.140625 127.40625 L 95.154297 124.4707 C 91.187127 120.57144 87.886454 116.14887 87.265625 113.90039 C 86.631568 111.60403 87.381042 110.32302 90.361328 108.60156 C 93.37495 106.86083 95.529543 106.36103 103.58398 105.5332 C 107.50573 105.13012 111.76251 104.39237 113.10352 103.88281 C 114.43778 103.37583 118.42459 101.20562 121.96289 99.060547 C 132.17875 92.8673 133.04327 92.546913 139.16797 92.679688 C 144.34096 92.791938 144.35069 92.789519 147.41797 90.935547 C 153.84571 87.050117 163.07723 80.039865 175.22461 69.818359 C 177.55401 67.858296 179.79776 66.318878 180.21094 66.398438 C 181.92919 66.729523 185.08506 74.473386 185.56445 79.535156 C 185.85521 82.605078 185.26037 85.641296 183.43945 90.392578 C 182.9426 91.688994 182.71479 92.926503 182.93164 93.142578 C 183.45223 93.661356 185.24023 91.428736 185.24023 90.259766 C 185.24023 88.769309 186.22587 88.598348 187.56836 89.857422 C 188.54437 90.772748 189.38667 91.035156 191.34961 91.035156 C 193.49288 91.035156 194.02287 91.233515 194.85938 92.349609 C 196.27886 94.243606 196.6118 99.406822 195.52539 102.67773 C 194.46848 105.85976 191.274 109.52796 188.375 110.89062 C 185.78098 112.10998 180.52987 117.23832 178.07227 120.95117 C 177.13152 122.37243 175.36739 125.33513 174.15234 127.53516 C 172.93727 129.73514 170.89902 133.05925 169.62305 134.92188 C 167.11233 138.58695 164.96193 143.69947 162.88672 150.93945 C 161.66762 155.19256 161.56602 156.29964 161.51562 165.78516 C 161.45467 177.24355 160.8614 180.05583 157.76367 183.58398 C 154.24189 187.59505 150.72716 196.40324 150.43164 201.95703 C 150.24512 205.46258 149.70496 208.87946 148.9375 211.41016 C 148.59953 212.52451 149.23118 212.51105 152.99023 211.32617 C 163.94478 207.87297 172.87193 203.23297 181.49023 196.51172 C 186.07289 192.9378 193.99341 184.94084 197.31445 180.53516 C 206.32213 168.58573 212.45054 153.61701 214.25391 139.16406 C 215.12249 132.20285 214.61898 117.47641 213.29297 111.08398 C 209.78028 94.149967 202.21105 79.847157 190.28906 67.607422 C 182.85634 59.976631 176.09023 54.946856 167.38477 50.582031 C 154.17531 43.958938 142.85756 41.282658 127.99023 41.267578 z M 144.16211 97.949219 L 136.73242 98.990234 L 132.11328 104.9043 L 139.54492 103.86133 L 144.16211 97.949219 z "
       transform="matrix(0.26458333,0,0,0.26458333,42.106554,153.8982)"
       id="path875" />
  </g>
</svg>
