<?xml version="1.0" encoding="UTF-8" standalone="no"?>
<svg
   width="15.999999"
   height="15.999999"
   viewBox="0 0 15.999999 15.999999"
   version="1.1"
   id="svg1"
   sodipodi:docname="translation-wb.svg"
   inkscape:version="1.3 (0e150ed6c4, 2023-07-21)"
   xmlns:inkscape="http://www.inkscape.org/namespaces/inkscape"
   xmlns:sodipodi="http://sodipodi.sourceforge.net/DTD/sodipodi-0.dtd"
   xmlns="http://www.w3.org/2000/svg"
   xmlns:svg="http://www.w3.org/2000/svg">
  <sodipodi:namedview
     id="namedview1"
     pagecolor="#ffffff"
     bordercolor="#000000"
     borderopacity="0.25"
     inkscape:showpageshadow="2"
     inkscape:pageopacity="0.0"
     inkscape:pagecheckerboard="0"
     inkscape:deskcolor="#d1d1d1"
     inkscape:zoom="15.052657"
     inkscape:cx="-2.192304"
     inkscape:cy="11.592638"
     inkscape:window-width="1920"
     inkscape:window-height="991"
     inkscape:window-x="-9"
     inkscape:window-y="-9"
     inkscape:window-maximized="1"
     inkscape:current-layer="svg1" />
  <defs
     id="defs1" />
  <g
     id="Page-1"
     stroke="none"
     stroke-width="1"
     fill="none"
     fill-rule="evenodd"
     transform="matrix(0.06349206,0,0,0.05797101,-0.44444442,-0.34782606)">
    <g
       fill="#000000"
       fill-rule="nonzero"
       id="g1">
      <path
         d="m 47.100902,179.53132 -13.313162,15.6285 c -4.75542,5.58245 -13.129096,-1.55068 -8.373675,-7.13313 l 22.975917,-26.97173 c 0.0208,-0.0247 0.04181,-0.0493 0.06303,-0.0736 2.274811,-2.62652 5.360454,-2.37598 7.446174,-0.79088 0.151761,0.11391 0.298707,0.23656 0.440104,0.3679 0.263741,0.2421 0.506342,0.50702 0.723183,0.79083 l 22.72527,26.67749 c 1.96976,2.31233 1.692055,5.78364 -0.620272,7.7534 -2.312327,1.96976 -5.783643,1.69206 -7.753403,-0.62027 l -13.313163,-15.6285 v 58.56193 H 118.6009 c 3.03757,0 5.5,2.46244 5.5,5.5 0,3.03757 -2.46243,5.5 -5.5,5.5 H 52.600902 c -3.037566,0 -5.5,-2.46243 -5.5,-5.5 z m 0,0 v -14.90093 l 11,0.94672 z M 212.5,40 c 3.03757,0 5.5,2.462434 5.5,5.5 v 64.06193 l 13.31316,-15.628495 c 4.75542,-5.582451 13.1291,1.55068 8.37368,7.133135 l -22.97592,26.97172 c -0.0208,0.0247 -0.0418,0.0493 -0.063,0.0736 -2.27481,2.62652 -5.36045,2.37598 -7.44617,0.79087 -0.15176,-0.11391 -0.29871,-0.23656 -0.44011,-0.36789 -0.26374,-0.24211 -0.50634,-0.50703 -0.72318,-0.79083 l -22.72527,-26.67749 c -1.96976,-2.312331 -1.69205,-5.783648 0.62027,-7.753408 2.31233,-1.96976 5.78365,-1.692054 7.75341,0.620273 L 207,109.56193 V 51 h -60.5 c -3.03757,0 -5.5,-2.462434 -5.5,-5.5 0,-3.037566 2.46243,-5.5 5.5,-5.5 z m -5.5,83.51615 v -13.95422 h 11 z M 145,144 h 102 c 6.62742,0 12,5.37258 12,12 v 114 c 0,6.62742 -5.37258,12 -12,12 H 145 c -6.62742,0 -12,-5.37258 -12,-12 V 156 c 0,-6.62742 5.37258,-12 12,-12 z m 78.71788,107 c 3.95902,0 7.052,-0.66121 9.28212,-1.97099 V 239.0064 c -1.51953,0.5062 -2.8392,0.75929 -3.95902,0.75929 -2.03026,0 -3.22304,-0.70867 -3.57834,-2.12601 -0.3553,-1.41417 -0.53295,-3.64458 -0.53295,-6.68173 v -40.39416 c 0,-4.55889 -0.85969,-8.25093 -2.58541,-11.08561 -1.7289,-2.83784 -4.00978,-5.03661 -6.85215,-6.60897 -2.84237,-1.56604 -6.01466,-2.60373 -9.51687,-3.10992 C 202.47306,169.25626 198.94547,169 195.39251,169 c -4.36507,0 -8.52712,0.45874 -12.48614,1.36672 -3.95901,0.91115 -7.46122,2.40758 -10.50662,4.4798 -3.0454,2.07539 -5.48172,4.78352 -7.30895,8.12439 -1.82724,3.34087 -2.84238,7.44419 -3.0454,12.30047 h 12.94294 c 0.30454,-5.77059 2.28405,-9.69358 5.93853,-11.76897 3.65447,-2.07222 8.22257,-3.11308 13.70429,-3.11308 2.03026,0 4.08591,0.15502 6.16693,0.45873 2.07785,0.30372 3.95902,0.91115 5.63398,1.8223 1.67497,0.91114 3.0454,2.23041 4.11129,3.9483 1.06589,1.72422 1.59884,3.99892 1.59884,6.83359 0,2.42973 -0.7106,4.28049 -2.13178,5.54281 -1.42436,1.26232 -3.34994,2.22725 -5.78626,2.88213 -2.43632,0.66122 -5.25331,1.16425 -8.45098,1.51858 -3.19767,0.35434 -6.57298,0.889 -10.12595,1.59451 -3.34994,0.61059 -6.62374,1.36672 -9.82141,2.27786 -3.19766,0.91115 -6.04004,2.24939 -8.52711,4.02423 -2.49025,1.77168 -4.49196,4.07485 -6.01466,6.90953 -1.5227,2.83467 -2.28405,6.47926 -2.28405,10.93375 0,3.9483 0.68521,7.31448 2.05564,10.09854 1.37043,2.78722 3.24843,5.06192 5.63399,6.8336 2.38239,1.76851 5.1518,3.03715 8.29871,3.79644 3.14374,0.75613 6.49368,1.13577 10.04981,1.13577 5.48172,0 10.58276,-0.93646 15.30313,-2.80937 4.72036,-1.87291 8.85386,-4.93537 12.40999,-9.18739 0,4.24885 0.99293,7.31448 2.97244,9.18739 1.97951,1.87291 4.64423,2.80937 7.99417,2.80937 z m -18.12012,-39.55893 c 2.63617,-0.55682 4.77113,-1.44265 6.39534,-2.65751 v 13.20845 c 0,1.82546 -0.45681,3.77746 -1.37043,5.84652 -0.91362,2.07539 -2.33481,3.99892 -4.26356,5.7706 -1.92875,1.77483 -4.41583,3.24596 -7.46122,4.40704 -3.0454,1.16424 -6.69988,1.74636 -10.96344,1.74636 -1.92875,0 -3.83212,-0.20248 -5.71012,-0.60743 -1.88117,-0.40179 -3.50221,-1.06301 -4.87264,-1.97415 -1.37042,-0.91115 -2.49024,-2.1007 -3.34993,-3.56866 -0.86287,-1.46796 -1.2943,-3.26494 -1.2943,-5.39095 0,-3.23963 0.73597,-5.79274 2.20792,-7.66881 1.47194,-1.87291 3.37531,-3.31556 5.71012,-4.32795 2.3348,-1.00922 4.97098,-1.7432 7.91803,-2.19877 2.94389,-0.45874 5.86239,-0.86369 8.75552,-1.21802 2.89313,-0.35434 5.65619,-0.80991 8.29871,-1.36672 z M 19,6 h 102 c 6.62742,0 12,5.372583 12,12 v 114 c 0,6.62742 -5.37258,12 -12,12 H 19 C 12.372583,144 7,138.62742 7,132 V 18 C 7,11.372583 12.372583,6 19,6 Z m 60.811426,125.89967 c 0.377238,0.26225 0.759145,0.47638 0.848682,0.47585 0.08953,-5.4e-4 1.968167,-0.47435 4.174739,-1.05291 12.382759,-3.24677 21.085583,-7.41309 26.979023,-12.91571 6.53504,-6.10168 9.60031,-13.22738 9.58608,-22.2844 -0.0144,-9.168829 -3.33038,-15.58791 -10.57479,-20.470665 -4.75133,-3.202416 -10.926717,-5.056144 -19.00887,-5.706085 l -2.58551,-0.207917 -1.487325,-3.791844 c -1.511996,-3.854734 -2.417913,-5.244051 -3.41944,-5.244051 -0.667042,0 -0.782167,0.4715 -1.00966,4.135071 -0.09415,1.516192 -0.317564,3.272522 -0.496479,3.902958 -0.351622,1.238992 -0.309787,1.218936 -3.692342,1.770361 -5.49966,0.896557 -11.488643,2.420162 -16.629783,4.230633 l -2.587961,0.911361 0.207177,-4.029298 c 0.482829,-9.390374 1.903321,-20.643738 2.633203,-20.860673 0.266131,-0.0791 2.219812,-0.432366 4.341516,-0.785042 5.361807,-0.891258 15.286324,-2.891232 18.979607,-3.824744 7.973799,-2.015458 9.572098,-2.80548 9.359097,-4.626117 -0.224737,-1.920989 -4.564762,-4.064055 -8.741874,-4.316661 -2.24475,-0.135747 -2.594972,-0.07711 -3.857644,0.645925 -2.78637,1.595534 -3.987445,1.995855 -11.028991,3.675961 -3.944243,0.941093 -7.361504,1.71108 -7.593917,1.71108 -0.326004,0 -0.01379,-2.012386 1.366227,-8.806168 0.983841,-4.843393 2.004002,-9.495347 2.267029,-10.337676 0.263026,-0.842329 0.476684,-1.876096 0.474792,-2.297261 C 68.305285,19.856903 65.72258,16.36305 62.836047,14.391115 61.845364,13.714327 57.681096,12 57.027803,12 c -0.266995,0 -1.048131,1.034919 -1.048131,1.388658 0,0.234296 0.766251,1.278318 1.702779,2.32005 0.936528,1.041731 1.789925,2.238681 1.896439,2.659888 0.278501,1.101326 -0.08983,7.588669 -0.664471,11.703192 -0.869713,6.227309 -2.36947,14.23249 -2.734548,14.596063 -0.600715,0.598244 -11.040974,1.743187 -16.093691,1.764937 -5.012422,0.02158 -6.033081,-0.228044 -8.86356,-2.167742 -2.172033,-1.488469 -3.936266,-0.0938 -2.824771,2.23304 0.729866,1.527932 4.801409,5.761442 6.480042,6.737824 1.204391,0.700536 1.437251,0.732817 3.252775,0.450894 1.075533,-0.167014 3.274828,-0.381064 4.887323,-0.475665 1.612495,-0.0946 4.987402,-0.462334 7.499793,-0.817182 2.512391,-0.354847 4.646153,-0.567588 4.741699,-0.472761 0.09554,0.09483 -0.0483,1.79916 -0.319645,3.7874 -0.749379,5.490905 -1.410345,12.861082 -1.632014,18.19793 l -0.199289,4.798056 -1.110474,0.515702 c -4.222247,1.960801 -11.878089,6.739518 -16.385632,10.227784 -3.262752,2.524956 -9.522868,8.518879 -11.244924,10.766762 -3.908021,5.10134 -5.615337,10.4847 -5.338633,16.8333 0.269548,6.18438 2.0055,9.32404 5.808164,10.50471 2.324493,0.72172 3.969892,0.67466 7.501698,-0.21455 6.28803,-1.58315 13.009737,-4.69375 20.021992,-9.26555 3.616133,-2.35763 4.544782,-2.74363 4.544782,-1.88907 0,0.17122 0.562016,1.738 1.24892,3.48173 0.986273,2.50368 1.511721,3.40607 2.498568,4.29095 1.000969,0.89755 1.412629,1.08296 2.068654,0.93174 1.127666,-0.25993 2.371291,-1.77861 2.856227,-3.48794 0.707489,-2.49379 0.4908,-4.17365 -1.065284,-8.2585 -0.789168,-2.07163 -1.434855,-3.87946 -1.434855,-4.01739 0,-0.13793 0.98394,-1.33751 2.186531,-2.66572 5.946771,-6.567977 13.757339,-16.995586 20.345315,-27.162306 l 2.928603,-4.519484 2.623198,0.188813 c 9.584627,0.689892 16.089257,4.347788 19.016567,10.694018 1.37115,2.972561 1.70184,4.681141 1.87952,9.710802 0.22864,6.472207 -0.31706,9.585117 -2.40086,13.695627 -1.74525,3.4427 -3.39095,5.39336 -7.21963,8.55751 -5.504238,4.54889 -12.163497,8.27063 -18.980951,10.60813 -1.776769,0.6092 -3.477989,1.32994 -3.78049,1.60165 -0.745785,0.66988 -0.691787,1.49098 0.135887,2.06637 z M 40.772529,111.93905 c -1.558186,0.45838 -3.032434,0.69339 -4.850318,0.7732 -4.226052,0.18553 -4.901061,-0.46098 -4.65916,-4.46247 0.329782,-5.45518 3.423752,-9.989565 10.683272,-15.656927 2.218383,-1.731845 7.657795,-5.366449 9.917755,-6.627019 l 1.390912,-0.775832 0.162672,4.416592 c 0.180675,4.905465 0.513546,8.946704 1.028531,12.486946 0.312768,2.15013 0.306448,2.37549 -0.07449,2.65613 -3.312677,2.44046 -10.660105,6.32477 -13.599173,7.18938 z M 64.113178,97.927341 c -1.154514,1.371991 -2.226414,2.536959 -2.382004,2.588829 -0.175053,0.0584 -0.345616,-0.46515 -0.447447,-1.37331 -0.250572,-2.234702 -0.653444,-10.037507 -0.658892,-12.76139 l -0.0048,-2.420466 2.471855,-1.037956 c 3.621714,-1.520792 6.693274,-2.496414 10.171634,-3.230826 4.538004,-0.958144 4.37101,-1.101935 2.40912,2.074432 -3.82096,6.186272 -7.532478,11.375165 -11.559426,16.160687 z"
         id="path1" />
    </g>
  </g>
</svg>
